Coordinates
version=1
nRows=29
nColumns=22
inDegrees=yes

Units are S.I. units (second, meters, Newtons, ...)
If the header above contains a line with 'inDegrees', this indicates whether rotational values are in degrees (yes) or radians (no).

endheader
time	pelvis_tilt	pelvis_list	pelvis_rotation	pelvis_tx	pelvis_ty	pelvis_tz	hip_flexion_r	hip_adduction_r	hip_rotation_r	knee_angle_r	ankle_angle_r	subtalar_angle_r	hip_flexion_l	hip_adduction_l	hip_rotation_l	knee_angle_l	ankle_angle_l	subtalar_angle_l	lumbar_extension	lumbar_bending	lumbar_rotation
      2.57000000	     -0.97375564	      7.58943588	    -52.77507323	      0.04303384	      0.97020953	      0.28068668	     38.01969942	     -7.34135591	     -9.85033225	    -48.68209240	     13.38644939	     -7.56574794	     13.61056868	      4.26547878	     -3.52758401	    -24.87804646	     23.82055717	      0.37821141	     -3.85290529	     -2.26830079	     -1.35319385
      2.58000000	     -0.91860577	      7.49166402	    -53.04719904	      0.04778702	      0.96987430	      0.28681021	     38.19644194	     -7.32383152	    -10.92090195	    -46.44871084	     13.38127367	     -7.45038534	     12.86360067	      4.23122762	     -3.79835421	    -24.66202157	     24.21089947	      0.30139650	     -4.01045105	     -2.23792208	     -1.46352886
      2.59000000	     -0.89116736	      7.43891724	    -53.32361332	      0.05241416	      0.96933968	      0.29302220	     38.39599931	     -7.26619564	    -11.98289361	    -44.20151295	     13.27314554	     -7.27366104	     12.18419556	      4.19249746	     -4.10607384	    -24.46875088	     24.61932048	      0.23505744	     -4.10781950	     -2.21801107	     -1.57072935
      2.60000000	     -0.80501593	      7.38516694	    -53.62960317	      0.05697205	      0.96877212	      0.29938397	     38.52871323	     -7.21144218	    -13.03183855	    -41.95779676	     13.11924273	     -7.01242025	     11.42826870	      4.20574918	     -4.41035356	    -24.21342140	     24.98954610	      0.18304696	     -4.24461651	     -2.26012347	     -1.60102277
      2.61000000	     -0.72659774	      7.37691808	    -53.94202357	      0.06140849	      0.96802940	      0.30584679	     38.67984700	     -7.12481169	    -14.03340164	    -39.72281765	     12.88583485	     -6.67841877	     10.71416835	      4.23221166	     -4.74838788	    -23.95612395	     25.36459318	      0.14970970	     -4.33296533	     -2.33222978	     -1.63748040
      2.62000000	     -0.63707883	      7.40728745	    -54.26176806	      0.06580431	      0.96714185	      0.31240705	     38.83516194	     -7.02867478	    -14.98117795	    -37.51403505	     12.63316498	     -6.28740428	     10.01256984	      4.29063852	     -5.11198584	    -23.67930577	     25.72417059	      0.13506161	     -4.38604844	     -2.43614889	     -1.65579606
      2.63000000	     -0.53106321	      7.46702096	    -54.58935739	      0.07014282	      0.96613736	      0.31909498	     38.98454799	     -6.91640748	    -15.84395042	    -35.34024258	     12.38099676	     -5.84459621	      9.30447380	      4.37934420	     -5.48550873	    -23.36954773	     26.07040076	      0.13893564	     -4.41545500	     -2.57852882	     -1.66047461
      2.64000000	     -0.41483008	      7.56447851	    -54.91939364	      0.07444397	      0.96500291	      0.32589027	     39.14120506	     -6.78862156	    -16.58141624	    -33.20850736	     12.12850127	     -5.39929504	      8.60795337	      4.49932917	     -5.87177283	    -23.03786479	     26.40065614	      0.15383511	     -4.40794391	     -2.75082114	     -1.68205973
      2.65000000	     -0.25808331	      7.65328135	    -55.25489587	      0.07878625	      0.96383432	      0.33286088	     39.24524316	     -6.66873080	    -17.24180425	    -31.14998205	     12.03833610	     -4.87796617	      7.83548896	      4.65845296	     -6.23268669	    -22.64081575	     26.70599720	      0.20852883	     -4.41793027	     -2.95468407	     -1.65337102
      2.66000000	     -0.12256430	      7.78245459	    -55.58015781	      0.08310304	      0.96251024	      0.33992816	     39.37641333	     -6.52293483	    -17.75259284	    -29.15153340	     11.92935280	     -4.46790767	      7.12009609	      4.81913200	     -6.62069864	    -22.26603598	     27.00034259	      0.25240264	     -4.36709351	     -3.15772127	     -1.66425916
      2.67000000	      0.03606395	      7.89587587	    -55.89375900	      0.08750712	      0.96116325	      0.34714788	     39.45601765	     -6.38750662	    -18.16939979	    -27.24907236	     11.95220209	     -4.07649365	      6.34974499	      5.00310199	     -6.97024979	    -21.85669215	     27.27062404	      0.32940332	     -4.32891340	     -3.36032986	     -1.66575569
      2.68000000	      0.18442106	      8.01947591	    -56.17621223	      0.09196537	      0.95972999	      0.35447143	     39.53011034	     -6.25974065	    -18.48603025	    -25.45859076	     12.02764533	     -3.78189957	      5.60050663	      5.18893369	     -7.29575708	    -21.46902342	     27.52187631	      0.41858922	     -4.26495576	     -3.55450607	     -1.69632322
      2.69000000	      0.31855858	      8.14163744	    -56.43239194	      0.09651344	      0.95823505	      0.36190272	     39.58913858	     -6.13562917	    -18.69596759	    -23.80169242	     12.12519196	     -3.59581133	      4.87323049	      5.36625131	     -7.60071473	    -21.12446569	     27.75669727	      0.51459903	     -4.18166768	     -3.71751392	     -1.74583453
      2.70000000	      0.43968633	      8.25149760	    -56.64398744	      0.10115225	      0.95671338	      0.36944070	     39.62302165	     -6.02679170	    -18.82515611	    -22.30832758	     12.25081297	     -3.51334110	      4.15872966	      5.52958621	     -7.85282750	    -20.82423527	     27.97126335	      0.63682685	     -4.09593010	     -3.85048907	     -1.82921420
      2.71000000	      0.53527514	      8.35289381	    -56.80999362	      0.10587188	      0.95516150	      0.37708954	     39.64510441	     -5.92594892	    -18.86803037	    -21.00789238	     12.36771038	     -3.54839917	      3.48106437	      5.66545330	     -8.05212280	    -20.59531120	     28.16766205	      0.78157035	     -3.99574659	     -3.94435093	     -1.94377989
      2.72000000	      0.59937091	      8.44319211	    -56.92905094	      0.11065094	      0.95359491	      0.38485725	     39.66050501	     -5.82722785	    -18.82771707	    -19.93218441	     12.45186961	     -3.69812476	      2.84760042	      5.76319697	     -8.18876892	    -20.44995400	     28.34530492	      0.95357461	     -3.88385065	     -3.99568220	     -2.08812569
      2.73000000	      0.62607408	      8.51830193	    -56.99940243	      0.11547405	      0.95203133	      0.39275854	     39.67395956	     -5.72484095	    -18.71765038	    -19.11418128	     12.47549897	     -3.95787224	      2.26500505	      5.81056997	     -8.25973957	    -20.40302021	     28.50077496	      1.16889905	     -3.75980141	     -3.99793678	     -2.26402199
      2.74000000	      0.60398378	      8.58709657	    -57.02383664	      0.12031583	      0.95046578	      0.40078822	     39.70546213	     -5.60961757	    -18.53848775	    -18.57372982	     12.39661885	     -4.28705511	      1.75686618	      5.79944115	     -8.26162327	    -20.47075576	     28.63216971	      1.42172468	     -3.60925953	     -3.94807109	     -2.45804003
      2.75000000	      0.53041338	      8.64261619	    -57.01175908	      0.12515005	      0.94892114	      0.40900289	     39.75797777	     -5.46830995	    -18.30094747	    -18.33343276	     12.19053873	     -4.67388916	      1.31437992	      5.71650855	     -8.22214871	    -20.64896840	     28.73023643	      1.72288361	     -3.43161637	     -3.84617995	     -2.67768149
      2.76000000	      0.40329737	      8.67445582	    -56.97385939	      0.12994486	      0.94742128	      0.41738570	     39.82569180	     -5.28146182	    -17.98217333	    -18.37918486	     11.81337288	     -5.14512467	      0.93796107	      5.55564767	     -8.13098839	    -20.95115986	     28.79765361	      2.09671404	     -3.24014189	     -3.68375649	     -2.89929124
      2.77000000	      0.22329069	      8.67951349	    -56.91994911	      0.13469614	      0.94600096	      0.42595889	     39.90582949	     -5.04311205	    -17.60797753	    -18.68404620	     11.16936189	     -5.70632266	      0.61850824	      5.31508887	     -8.00352715	    -21.36512802	     28.82296432	      2.53901580	     -3.03261503	     -3.45887286	     -3.10261601
      2.78000000	     -0.00889520	      8.64905649	    -56.87599876	      0.13939291	      0.94469028	      0.43477284	     39.99245856	     -4.73532115	    -17.20014128	    -19.21044171	     10.24026714	     -6.39412696	      0.33879375	      4.99297403	     -7.85654907	    -21.87806642	     28.78705777	      3.05516109	     -2.81104559	     -3.16463095	     -3.28969651
      2.79000000	     -0.29578020	      8.56880181	    -56.84788467	      0.14400466	      0.94352853	      0.44384239	     40.07098256	     -4.34510548	    -16.77409196	    -19.90549856	      9.04550868	     -7.23542179	      0.09149183	      4.57563177	     -7.69770386	    -22.49566002	     28.67771115	      3.65137118	     -2.58710381	     -2.79612853	     -3.42778498
      2.80000000	     -0.62162067	      8.42905948	    -56.85908485	      0.14853691	      0.94256189	      0.45317836	     40.12935549	     -3.87540526	    -16.35122866	    -20.73054691	      7.64371424	     -8.20003142	     -0.14356045	      4.07655482	     -7.54753486	    -23.21314784	     28.48922959	      4.32021665	     -2.37784912	     -2.35545661	     -3.52674460
      2.81000000	     -0.97854429	      8.22359995	    -56.92896499	      0.15297451	      0.94182951	      0.46278483	     40.15804723	     -3.32658442	    -15.95153795	    -21.64957654	      6.15158106	     -9.23767173	     -0.37909213	      3.50380691	     -7.40531888	    -24.02527962	     28.19941041	      5.06603092	     -2.19567018	     -1.84618459	     -3.56450264
      2.82000000	     -1.35775052	      7.95103217	    -57.07207482	      0.15731932	      0.94136670	      0.47265150	     40.14941070	     -2.70495250	    -15.58789521	    -22.64197483	      4.71981602	    -10.26516310	     -0.61857539	      2.86983226	     -7.27638347	    -24.93624858	     27.78493067	      5.88515049	     -2.04910738	     -1.27165498	     -3.53436990
      2.83000000	     -1.74497625	      7.61571873	    -57.29861887	      0.16154934	      0.94119821	      0.48274445	     40.08950064	     -2.01521737	    -15.23137138	    -23.67820306	      3.48996909	    -11.21872944	     -0.85831668	      2.19327507	     -7.16507538	    -25.95733813	     27.22491301	      6.76949081	     -1.95052636	     -0.64838219	     -3.44399286
      2.84000000	     -2.14418130	      7.23203238	    -57.60686881	      0.16566460	      0.94131003	      0.49302761	     39.98264526	     -1.26553770	    -14.90946213	    -24.74004073	      2.56368216	    -12.03504932	     -1.06898970	      1.48020678	     -7.07598650	    -27.11142991	     26.49983263	      7.69963256	     -1.88893036	      0.02013872	     -3.29363447
      2.85000000	     -2.53750328	      6.81906566	    -57.98795889	      0.16964052	      0.94169580	      0.50343151	     39.82049035	     -0.47706660	    -14.60146588	    -25.79308341	      1.96487730	    -12.71598203	     -1.22803882	      0.75823462	     -6.99822940	    -28.41657381	     25.59028720	      8.66579803	     -1.86815861	      0.70131769	     -3.10688775
